<svg width="51" height="50" viewBox="0 0 51 50" fill="none" xmlns="http://www.w3.org/2000/svg">
<path d="M14.472 40.357V32.5356C14.472 28.6697 17.6061 25.5356 21.472 25.5356H29.6079C33.4738 25.5356 36.6079 28.6696 36.6079 32.5356V40.357" stroke="black" stroke-linecap="round" stroke-linejoin="round"/>
<path d="M1.19043 40.3572V37.1906C1.19043 33.438 4.21658 30.3501 7.96591 30.1938V30.1938" stroke="black" stroke-linecap="round" stroke-linejoin="round"/>
<path d="M36.7617 40.3571V36.561C36.7617 33.212 39.3498 30.4325 42.6903 30.1938V30.1938" stroke="black" stroke-linecap="round" stroke-linejoin="round"/>
<path d="M49.8893 40.3572V36.9693C49.8893 33.2273 46.8558 30.1938 43.1138 30.1938V30.1938" stroke="black" stroke-linecap="round" stroke-linejoin="round"/>
<path d="M14.318 40.3572V36.9693C14.318 33.2273 11.2845 30.1938 7.54251 30.1938V30.1938" stroke="black" stroke-linecap="round" stroke-linejoin="round"/>
<path d="M25.3281 25.1123C29.304 25.1123 32.5271 21.8892 32.5271 17.9133C32.5271 13.9374 29.304 10.7144 25.3281 10.7144C21.3522 10.7144 18.1292 13.9374 18.1292 17.9133C18.1292 21.8892 21.3522 25.1123 25.3281 25.1123Z" stroke="black" stroke-linecap="round" stroke-linejoin="round"/>
<path d="M8.38947 30.194C10.9621 30.194 13.0476 28.1085 13.0476 25.5358C13.0476 22.9632 10.9621 20.8777 8.38947 20.8777C5.81685 20.8777 3.73132 22.9632 3.73132 25.5358C3.73132 28.1085 5.81685 30.194 8.38947 30.194Z" stroke="black" stroke-linecap="round" stroke-linejoin="round"/>
<path d="M43.1138 30.194C45.6865 30.194 47.772 28.1085 47.772 25.5358C47.772 22.9632 45.6865 20.8777 43.1138 20.8777C40.5412 20.8777 38.4557 22.9632 38.4557 25.5358C38.4557 28.1085 40.5412 30.194 43.1138 30.194Z" stroke="black" stroke-linecap="round" stroke-linejoin="round"/>
</svg>
