<svg width="20" height="21" viewBox="0 0 20 21" fill="none" xmlns="http://www.w3.org/2000/svg">
<path d="M10.0002 19.5911C4.97938 19.5911 0.909243 15.521 0.909243 10.5002C0.909243 5.47944 4.97938 1.4093 10.0002 1.4093C15.0209 1.4093 19.0911 5.47944 19.0911 10.5002C19.0911 15.521 15.0209 19.5911 10.0002 19.5911Z" stroke="black" stroke-linecap="round" stroke-linejoin="round"/>
<path d="M14.0908 12.772C14.0908 12.772 12.7272 14.5902 9.99991 14.5902C7.27264 14.5902 5.909 12.772 5.909 12.772" stroke="black" stroke-linecap="round" stroke-linejoin="round"/>
<path d="M13.1822 7.77176C12.9311 7.77176 12.7276 7.56825 12.7276 7.31722C12.7276 7.06618 12.9311 6.86267 13.1822 6.86267C13.4332 6.86267 13.6367 7.06618 13.6367 7.31722C13.6367 7.56825 13.4332 7.77176 13.1822 7.77176Z" fill="black" stroke="black" stroke-linecap="round" stroke-linejoin="round"/>
<path d="M6.81865 7.77176C6.56761 7.77176 6.3641 7.56825 6.3641 7.31722C6.3641 7.06618 6.56761 6.86267 6.81865 6.86267C7.06969 6.86267 7.27319 7.06618 7.27319 7.31722C7.27319 7.56825 7.06969 7.77176 6.81865 7.77176Z" fill="black" stroke="black" stroke-linecap="round" stroke-linejoin="round"/>
</svg>
