<svg width="50" height="50" viewBox="0 0 50 50" fill="none" xmlns="http://www.w3.org/2000/svg">
<path d="M15.2378 19.3083L15.2602 19.2834" stroke="black" stroke-width="1.5" stroke-linecap="round" stroke-linejoin="round"/>
<path d="M23.3335 19.3083L23.3559 19.2834" stroke="black" stroke-width="1.5" stroke-linecap="round" stroke-linejoin="round"/>
<path d="M15.2378 27.4028L15.2602 27.3779" stroke="black" stroke-width="1.5" stroke-linecap="round" stroke-linejoin="round"/>
<path d="M23.3335 27.4028L23.3559 27.3779" stroke="black" stroke-width="1.5" stroke-linecap="round" stroke-linejoin="round"/>
<path d="M15.2378 35.498L15.2602 35.4731" stroke="black" stroke-width="1.5" stroke-linecap="round" stroke-linejoin="round"/>
<path d="M23.3335 35.498L23.3559 35.4731" stroke="black" stroke-width="1.5" stroke-linecap="round" stroke-linejoin="round"/>
<path d="M31.4287 43.5715H7.74296C7.41159 43.5715 7.14296 43.3029 7.14296 42.9715V11.7906C7.14296 11.4592 7.41159 11.1906 7.74296 11.1906H19.2858V7.74296C19.2858 7.41159 19.5544 7.14296 19.8858 7.14296H30.8287C31.16 7.14296 31.4287 7.41159 31.4287 7.74296V19.2858M31.4287 43.5715H42.9715C43.3029 43.5715 43.5715 43.3029 43.5715 42.9715V19.8858C43.5715 19.5544 43.3029 19.2858 42.9715 19.2858H31.4287M31.4287 43.5715V35.4763M31.4287 19.2858V27.3811M31.4287 27.3811H35.4763M31.4287 27.3811V35.4763M31.4287 35.4763H35.4763" stroke="black" stroke-linecap="round" stroke-linejoin="round"/>
</svg>
