<svg width="22" height="22" viewBox="0 0 22 22" fill="none" xmlns="http://www.w3.org/2000/svg">
<path d="M1.83252 11.9166H20.1658" stroke="#333333" stroke-linecap="round" stroke-linejoin="round"/>
<path d="M19.25 11.9167L18.7509 15.1115C18.4611 16.9661 16.8637 18.3334 14.9865 18.3334H7.01348C5.13634 18.3334 3.5389 16.9661 3.24914 15.1115L2.75 11.9167" stroke="#333333" stroke-linecap="round" stroke-linejoin="round"/>
<path d="M5.61948 18.065L4.58252 19.25" stroke="#333333" stroke-linecap="round" stroke-linejoin="round"/>
<path d="M16.3794 18.065L17.4164 19.25" stroke="#333333" stroke-linecap="round" stroke-linejoin="round"/>
<path fill-rule="evenodd" clip-rule="evenodd" d="M9.98194 5.5H10.1869C11.1585 5.5 12.0211 6.12172 12.3284 7.04346V7.04346C12.4215 7.32299 12.3747 7.63028 12.2024 7.86932C12.0301 8.10836 11.7534 8.25 11.4587 8.25H8.71014C8.41548 8.25 8.13878 8.10836 7.96649 7.86932C7.7942 7.63028 7.74733 7.32299 7.8405 7.04346V7.04346C8.14775 6.12172 9.01034 5.5 9.98194 5.5V5.5Z" stroke="#333333" stroke-linecap="round" stroke-linejoin="round"/>
<path d="M10.0825 5.5V5.5C10.0825 3.98122 8.8513 2.75 7.33252 2.75V2.75C5.81374 2.75 4.58252 3.98122 4.58252 5.5V11.9167" stroke="#333333" stroke-linecap="round" stroke-linejoin="round"/>
</svg>
