<svg width="121" height="22" viewBox="0 0 121 22" fill="none" xmlns="http://www.w3.org/2000/svg">
<path d="M106.594 21.6254V0.37501H121V2.7188H109.469V9.43766H119.844V11.7814H109.469V19.2816H121V21.6254H106.594Z" fill="black"/>
<path d="M86.5137 5.56259C86.5137 11.5627 99.5452 6.90637 99.5452 15.6253C99.5452 19.7191 96.2326 22.0004 91.7013 22.0004C87.1387 22.0004 84.0137 19.9066 83.0762 15.6253H86.0762C86.7637 18.1566 88.67 19.5316 91.7326 19.5316C94.9201 19.5316 96.6076 18.1253 96.6076 16.0003C96.6076 9.50016 83.5762 14.344 83.5762 5.75009C83.5762 2.68754 86.1387 0 90.8263 0C94.9201 0 98.2014 1.96878 98.9827 6.50011H95.9514C95.2951 3.68756 93.4826 2.46879 90.7638 2.46879C88.0763 2.46879 86.5137 3.68756 86.5137 5.56259Z" fill="black"/>
<path d="M73.1377 21.6254V0.37501H76.0127V21.6254H73.1377Z" fill="black"/>
<path d="M65.0862 13.5315C65.0862 18.7816 61.8362 22.0004 56.6173 22.0004C51.3672 22.0004 48.1172 18.7816 48.1172 13.5315V0.37501H51.0235V13.5315C51.0235 17.3753 53.1173 19.6878 56.6173 19.6878C60.1174 19.6878 62.2112 17.344 62.2112 13.5315V0.37501H65.0862V13.5315Z" fill="black"/>
<path d="M25.4902 21.6254V0.37501H33.1466C37.6154 0.37501 40.4592 2.68755 40.4592 6.37511C40.4592 8.81265 39.2717 10.5314 37.2717 11.4377C38.6467 12.0627 39.3655 13.219 39.8967 15.3128L41.4905 21.6254H38.4592L37.1154 15.8753C36.4904 13.219 35.4279 12.719 32.8654 12.719H28.3653V21.6254H25.4902ZM33.0841 2.7188H28.3653V7.87513H25.4902V10.3752H28.3653H33.0216C35.8342 10.3752 37.4904 8.87515 37.4904 6.53136C37.4904 4.18757 35.8342 2.7188 33.0841 2.7188Z" fill="black"/>
<path d="M18.2816 6.50011H15.2815C14.5002 3.90631 12.2815 2.46879 9.56266 2.46879C5.40634 2.46879 2.93755 5.71885 2.93755 11.0314C2.93755 16.344 5.37509 19.5316 9.56266 19.5316C12.1877 19.5316 14.3127 18.1878 15.219 15.6253H18.2503C17.0628 19.6566 13.594 22.0004 9.53141 22.0004C3.59381 22.0004 0 17.844 0 11.0314C0 4.25007 3.65631 0 9.65641 0C13.7502 0 17.2503 2.25004 18.2816 6.50011Z" fill="black"/>
</svg>
