<svg width="9" height="14" viewBox="0 0 9 14" fill="none" xmlns="http://www.w3.org/2000/svg">
<path d="M5.33276 5.72233H8.33276L7.99943 7.05566H5.33276V13.0557H3.99943V7.05566H1.33276V5.72233H3.99943V4.47433C3.99943 3.28566 4.12343 2.85433 4.35543 2.41966C4.58277 1.9902 4.93397 1.639 5.36343 1.41166C5.7981 1.17966 6.22943 1.05566 7.4181 1.05566C7.7661 1.05566 8.07143 1.089 8.33276 1.15566V2.389H7.4181C6.53543 2.389 6.26676 2.441 5.99276 2.58766C5.7901 2.69566 5.63943 2.84633 5.53143 3.049C5.38476 3.323 5.33276 3.59166 5.33276 4.47433V5.72233Z" fill="white" stroke="white" stroke-width="0.8"/>
</svg>
