<svg width="17" height="16" viewBox="0 0 17 16" fill="none" xmlns="http://www.w3.org/2000/svg">
<path d="M12.8182 3.07108C12.635 3.07108 12.4559 3.1254 12.3036 3.22718C12.1513 3.32896 12.0325 3.47362 11.9624 3.64286C11.8923 3.81212 11.874 3.99836 11.9097 4.17803C11.9454 4.3577 12.0336 4.52275 12.1632 4.65229C12.2928 4.78182 12.4577 4.87004 12.6374 4.90578C12.8171 4.94152 13.0034 4.92318 13.1726 4.85307C13.3419 4.78296 13.4865 4.66425 13.5883 4.51192C13.6901 4.35961 13.7444 4.18052 13.7444 3.99733C13.7444 3.75167 13.6468 3.51608 13.4731 3.34237C13.2994 3.16866 13.0638 3.07108 12.8182 3.07108ZM16.3688 4.93902C16.3538 4.29859 16.2339 3.66496 16.0137 3.06336C15.8175 2.54862 15.512 2.08252 15.1184 1.69714C14.7361 1.3015 14.269 0.997956 13.7521 0.809484C13.1521 0.582678 12.5177 0.459987 11.8765 0.446703C11.0583 0.400391 10.7959 0.400391 8.69635 0.400391C6.59685 0.400391 6.33441 0.400391 5.51623 0.446703C4.87491 0.459987 4.24058 0.582678 3.64057 0.809484C3.12471 0.99987 2.65792 1.30314 2.27435 1.69714C1.87871 2.07935 1.57517 2.54654 1.38669 3.06336C1.15989 3.66337 1.0372 4.2977 1.02391 4.93902C0.9776 5.7572 0.9776 6.01964 0.9776 8.11914C0.9776 10.2186 0.9776 10.4811 1.02391 11.2993C1.0372 11.9405 1.15989 12.5749 1.38669 13.1749C1.57517 13.6918 1.87871 14.1589 2.27435 14.5411C2.65792 14.9351 3.12471 15.2384 3.64057 15.4288C4.24058 15.6556 4.87491 15.7783 5.51623 15.7916C6.33441 15.8379 6.59685 15.8379 8.69635 15.8379C10.7959 15.8379 11.0583 15.8379 11.8765 15.7916C12.5177 15.7783 13.1521 15.6556 13.7521 15.4288C14.269 15.2404 14.7361 14.9368 15.1184 14.5411C15.5138 14.1572 15.8195 13.6906 16.0137 13.1749C16.2339 12.5733 16.3538 11.9397 16.3688 11.2993C16.3688 10.4811 16.4151 10.2186 16.4151 8.11914C16.4151 6.01964 16.4151 5.7572 16.3688 4.93902ZM14.9794 11.2066C14.9738 11.6966 14.885 12.1821 14.717 12.6423C14.5937 12.9782 14.3958 13.2817 14.1381 13.53C13.8877 13.7851 13.5848 13.9826 13.2504 14.1089C12.7902 14.277 12.3047 14.3657 11.8147 14.3713C11.0429 14.4099 10.7573 14.4176 8.72723 14.4176C6.69719 14.4176 6.4116 14.4176 5.63973 14.3713C5.13098 14.3809 4.6244 14.3025 4.14229 14.1398C3.82257 14.0071 3.53356 13.81 3.29323 13.5609C3.03703 13.3129 2.84155 13.0091 2.72204 12.6732C2.53359 12.2064 2.42906 11.7099 2.41329 11.2066C2.41329 10.4348 2.36698 10.1492 2.36698 8.11914C2.36698 6.08911 2.36698 5.80352 2.41329 5.03164C2.41675 4.53074 2.50819 4.03434 2.68344 3.56508C2.81934 3.23927 3.02791 2.94885 3.29323 2.71602C3.52773 2.45062 3.81755 2.23984 4.14229 2.09852C4.61278 1.92873 5.10868 1.84 5.60885 1.83608C6.38073 1.83608 6.66632 1.78977 8.69635 1.78977C10.7264 1.78977 11.012 1.78977 11.7839 1.83608C12.2738 1.8417 12.7593 1.93043 13.2195 2.09852C13.5703 2.2287 13.8851 2.44034 14.1381 2.71602C14.391 2.95312 14.5886 3.243 14.717 3.56508C14.8885 4.0351 14.9774 4.53129 14.9794 5.03164C15.018 5.80352 15.0257 6.08911 15.0257 8.11914C15.0257 10.1492 15.018 10.4348 14.9794 11.2066ZM8.69635 4.15942C7.91352 4.16095 7.14871 4.39447 6.49855 4.8305C5.8484 5.26653 5.34207 5.88549 5.04356 6.60916C4.74504 7.33284 4.66772 8.12876 4.82138 8.89637C4.97504 9.66396 5.35277 10.3688 5.90686 10.9218C6.46094 11.4748 7.1665 11.8512 7.9344 12.0033C8.7023 12.1555 9.49807 12.0766 10.2212 11.7767C10.9443 11.4768 11.5623 10.9692 11.997 10.3183C12.4317 9.66723 12.6638 8.90197 12.6638 8.11914C12.6648 7.59821 12.5628 7.08221 12.3637 6.60083C12.1646 6.11945 11.8723 5.68219 11.5036 5.31419C11.1349 4.94619 10.697 4.65472 10.2152 4.45654C9.73347 4.25837 9.21728 4.15738 8.69635 4.15942ZM8.69635 10.6895C8.18798 10.6895 7.69104 10.5387 7.26834 10.2563C6.84565 9.97387 6.5162 9.57244 6.32166 9.10277C6.12712 8.6331 6.07622 8.11629 6.1754 7.61769C6.27458 7.11909 6.51937 6.6611 6.87884 6.30163C7.23831 5.94217 7.6963 5.69737 8.1949 5.59819C8.6935 5.49901 9.21031 5.54991 9.67998 5.74445C10.1496 5.939 10.5511 6.26844 10.8335 6.69113C11.1159 7.11383 11.2667 7.61077 11.2667 8.11914C11.2667 8.45669 11.2002 8.79092 11.071 9.10277C10.9419 9.41462 10.7525 9.69797 10.5139 9.93665C10.2752 10.1753 9.99182 10.3647 9.67998 10.4938C9.36813 10.623 9.0339 10.6895 8.69635 10.6895Z" fill="black"/>
</svg>
