<svg width="40" height="40" viewBox="0 0 40 40" fill="none" xmlns="http://www.w3.org/2000/svg">
<path fill-rule="evenodd" clip-rule="evenodd" d="M35.8955 8.81921L29.2768 15.4379L32.887 33.2881C33.0876 33.8898 32.887 34.6921 32.2853 35.0932L30.8814 36.4972C29.8785 37.5 28.0734 37.0989 27.6723 35.8955L22.4576 22.4576L15.6384 29.2768L16.0395 33.6893C16.0395 34.291 15.839 34.8927 15.4379 35.2938L13.2316 37.5L9.01977 30.4802L2 26.2684L4.00565 23.661C4.40678 23.2599 5.00847 23.0593 5.61017 23.0593L10.0226 23.4604L16.8418 16.6412L3.20339 11.4266C2 10.8249 1.59887 9.22034 2.60169 8.21751L4.00565 6.81356C4.40678 6.41243 5.20904 6.21186 5.81073 6.21186L23.661 9.82203L30.2797 3.20339C31.8842 1.59887 34.291 1.59887 35.8955 3.20339V3.20339C37.5 4.80791 37.5 7.21469 35.8955 8.81921V8.81921Z" stroke="#333333" stroke-linecap="round" stroke-linejoin="round"/>
</svg>
