<svg width="20" height="21" viewBox="0 0 20 21" fill="none" xmlns="http://www.w3.org/2000/svg">
<path d="M13.2428 10.8933C13.01 11.1965 12.6522 11.3778 12.2699 11.386C11.8885 11.3755 11.5318 11.1947 11.2979 10.8933" stroke="#333333" stroke-linecap="round" stroke-linejoin="round"/>
<path d="M8.70328 10.8933C8.47066 11.1963 8.11315 11.3775 7.73121 11.386C7.3495 11.3756 6.99251 11.1948 6.7583 10.8933" stroke="#333333" stroke-linecap="round" stroke-linejoin="round"/>
<path fill-rule="evenodd" clip-rule="evenodd" d="M10.0009 18.7966C13.1307 18.7949 15.8725 16.6997 16.6962 13.6803C17.6293 13.5767 18.3353 12.788 18.3353 11.8491C18.3353 10.9102 17.6293 10.1215 16.6962 10.0179C15.8742 6.99722 13.1314 4.901 10.0009 4.901C6.87037 4.901 4.12754 6.99722 3.3056 10.0179C2.37248 10.1215 1.6665 10.9102 1.6665 11.8491C1.6665 12.788 2.37248 13.5767 3.3056 13.6803C4.12928 16.6997 6.87113 18.7949 10.0009 18.7966Z" stroke="#333333" stroke-linecap="round" stroke-linejoin="round"/>
<path d="M11.8533 14.3556C10.7919 15.2815 9.20983 15.2815 8.14844 14.3556" stroke="#333333" stroke-linecap="round" stroke-linejoin="round"/>
<path d="M8.09961 3C8.60395 3 9.08764 3.20035 9.44426 3.55697C9.80089 3.9136 10.0012 4.39728 10.0012 4.90163" stroke="#333333" stroke-linecap="round" stroke-linejoin="round"/>
<path d="M10.0005 4.90163C10.0005 4.39728 10.2008 3.9136 10.5575 3.55697C10.9141 3.20035 11.3978 3 11.9021 3" stroke="#333333" stroke-linecap="round" stroke-linejoin="round"/>
</svg>
