<svg width="40" height="40" viewBox="0 0 40 40" fill="none" xmlns="http://www.w3.org/2000/svg">
<path d="M25.0002 25.0002V23.0557C25.0002 19.8338 22.3888 17.2224 19.1669 17.2224H9.44466C6.22272 17.2224 3.61133 19.8338 3.61133 23.0557V25.0002" stroke="#333333" stroke-linecap="round" stroke-linejoin="round"/>
<path fill-rule="evenodd" clip-rule="evenodd" d="M21.1113 36.667H7.50022C5.35161 36.667 3.61133 34.9267 3.61133 32.7781V30.8336H25.0002V32.7781C25.0002 34.9267 23.2599 36.667 21.1113 36.667Z" stroke="#333333" stroke-linecap="round" stroke-linejoin="round"/>
<path d="M1.6665 25.0002H26.9443" stroke="#333333" stroke-linecap="round" stroke-linejoin="round"/>
<path d="M18.5523 17.222L17.8114 11.6453C17.6578 10.4787 18.5639 9.44421 19.7403 9.44421H36.6667C37.8509 9.44421 38.7589 10.4923 38.5917 11.6628L35.2589 34.9962C35.1209 35.9548 34.3003 36.6664 33.3339 36.6664H29.1864" stroke="#333333" stroke-linecap="round" stroke-linejoin="round"/>
<path d="M35.0171 1.66675H30.8619C29.8974 1.66675 29.0808 2.37258 28.9388 3.32536L28.0288 9.44453" stroke="#333333" stroke-linecap="round" stroke-linejoin="round"/>
</svg>
