<svg width="40" height="40" viewBox="0 0 40 40" fill="none" xmlns="http://www.w3.org/2000/svg">
<path d="M3.3335 28.5522C5.45575 27.6096 7.878 27.6096 10.0003 28.5522C12.1225 29.4948 14.5448 29.4948 16.667 28.5522C18.7893 27.6096 21.2115 27.6096 23.3338 28.5522C25.456 29.4948 27.8783 29.4948 30.0005 28.5522C32.1228 27.6096 34.545 27.6096 36.6673 28.5522" stroke="#333333" stroke-linecap="round" stroke-linejoin="round"/>
<path d="M12.5928 12.5927H27.4078" stroke="#333333" stroke-linecap="round" stroke-linejoin="round"/>
<path d="M12.5928 19.9999H27.4078" stroke="#333333" stroke-linecap="round" stroke-linejoin="round"/>
<path d="M27.4092 23.7039V6.11107C27.4092 4.57771 28.6536 3.33325 30.187 3.33325V3.33325C31.7204 3.33325 32.9648 4.57771 32.9648 6.11107" stroke="#333333" stroke-linecap="round" stroke-linejoin="round"/>
<path d="M12.5928 23.7039V6.11107C12.5928 4.57771 13.8372 3.33325 15.3706 3.33325V3.33325C16.9039 3.33325 18.1484 4.57771 18.1484 6.11107" stroke="#333333" stroke-linecap="round" stroke-linejoin="round"/>
<path d="M3.3335 35.9594C5.45575 35.0168 7.878 35.0168 10.0003 35.9594C12.1225 36.902 14.5448 36.902 16.667 35.9594C18.7893 35.0168 21.2115 35.0168 23.3338 35.9594C25.456 36.902 27.8783 36.902 30.0005 35.9594C32.1228 35.0168 34.545 35.0168 36.6673 35.9594" stroke="#333333" stroke-linecap="round" stroke-linejoin="round"/>
</svg>
