<svg width="20" height="21" viewBox="0 0 20 21" fill="none" xmlns="http://www.w3.org/2000/svg">
<path d="M15.3193 7.16669H16.2035C16.9202 7.16669 17.5002 7.74669 17.5002 8.46335V16.7042C17.5002 17.42 16.9202 18 16.2035 18H7.13016C6.4135 18 5.8335 17.42 5.8335 16.7034V15.5" stroke="#333333" stroke-linecap="round" stroke-linejoin="round"/>
<path fill-rule="evenodd" clip-rule="evenodd" d="M3.33424 15.5H12.7609C13.3184 15.5 13.8384 15.2216 14.1476 14.7575L14.7592 13.8391C15.1242 13.2916 15.3192 12.6483 15.3192 11.99V5.49998C15.3192 4.57915 14.5734 3.83331 13.6526 3.83331H5.31924C4.39841 3.83331 3.65258 4.57915 3.65258 5.49998V11.38C3.65258 11.8975 3.53174 12.4075 3.30091 12.8708L2.58924 14.2941C2.31174 14.8483 2.71508 15.5 3.33424 15.5Z" stroke="#333333" stroke-linecap="round" stroke-linejoin="round"/>
<path d="M6.98307 3V4.66667" stroke="#333333" stroke-linecap="round" stroke-linejoin="round"/>
<path d="M11.9831 3V4.66667" stroke="#333333" stroke-linecap="round" stroke-linejoin="round"/>
<path d="M6.8252 7.99998H11.8252" stroke="#333333" stroke-linecap="round" stroke-linejoin="round"/>
<path d="M6.8252 11.3334H11.8252" stroke="#333333" stroke-linecap="round" stroke-linejoin="round"/>
</svg>
