<svg width="40" height="40" viewBox="0 0 40 40" fill="none" xmlns="http://www.w3.org/2000/svg">
<path fill-rule="evenodd" clip-rule="evenodd" d="M18.3395 15.0042L13.2877 16.2671C12.3943 16.4905 11.489 15.9473 11.2657 15.054L10.2382 10.9441C10.0844 10.3289 10.1092 9.68249 10.3098 9.08083L11.2901 6.14007C11.517 5.45923 12.1542 5 12.8718 5H23.8072C24.5249 5 25.162 5.45924 25.389 6.14009L26.5228 9.54151C26.6231 9.84234 26.6355 10.1655 26.5586 10.4732L25.4134 15.054C25.19 15.9474 24.2848 16.4905 23.3914 16.2672L18.3395 15.0042Z" stroke="#333333" stroke-linecap="round" stroke-linejoin="round"/>
<path d="M33.3458 20.0062V15.0042C33.3458 12.2416 31.1063 10.0021 28.3437 10.0021H26.6084" stroke="#333333" stroke-linecap="round" stroke-linejoin="round"/>
<path d="M10.1402 10.0021H8.33558C5.57301 10.0021 3.3335 12.2416 3.3335 15.0042V30.0104C3.3335 32.773 5.57301 35.0125 8.33558 35.0125H20.0071" stroke="#333333" stroke-linecap="round" stroke-linejoin="round"/>
<path d="M24.7921 5.32507L18.3394 15.0041L11.8867 5.32507" stroke="#333333" stroke-linecap="round" stroke-linejoin="round"/>
<path d="M18.4239 25.0082C18.4239 25.0543 18.3866 25.0916 18.3405 25.0916C18.2945 25.0916 18.2571 25.0543 18.2571 25.0082C18.2571 24.9622 18.2945 24.9249 18.3405 24.9249" stroke="#333333" stroke-linecap="round" stroke-linejoin="round"/>
<path d="M18.3394 24.9249C18.3854 24.9249 18.4227 24.9623 18.4227 25.0083V25.0083" stroke="#333333" stroke-linecap="round" stroke-linejoin="round"/>
<path d="M18.4239 20.0063C18.4239 20.0523 18.3866 20.0897 18.3405 20.0897C18.2945 20.0897 18.2571 20.0523 18.2571 20.0063C18.2571 19.9602 18.2945 19.9229 18.3405 19.9229" stroke="#333333" stroke-linecap="round" stroke-linejoin="round"/>
<path d="M18.3394 19.9229C18.3854 19.9229 18.4227 19.9602 18.4227 20.0062V20.0062" stroke="#333333" stroke-linecap="round" stroke-linejoin="round"/>
<path fill-rule="evenodd" clip-rule="evenodd" d="M29.1776 35.8461C29.1776 32.6231 26.5648 30.0103 23.3418 30.0103C26.5648 30.0103 29.1776 27.3976 29.1776 24.1746C29.1776 27.3976 31.7903 30.0103 35.0133 30.0103C31.7903 30.0103 29.1776 32.6231 29.1776 35.8461Z" stroke="#333333" stroke-linecap="round" stroke-linejoin="round"/>
</svg>
