<svg width="40" height="40" viewBox="0 0 40 40" fill="none" xmlns="http://www.w3.org/2000/svg">
<path d="M12.7332 11.6667H7.2665C6.93513 11.6667 6.6665 11.9354 6.6665 12.2667V27.7334C6.6665 28.0648 6.93513 28.3334 7.2665 28.3334H12.7332C13.0645 28.3334 13.3332 28.0648 13.3332 27.7334V12.2667C13.3332 11.9354 13.0645 11.6667 12.7332 11.6667Z" stroke="#333333" stroke-linecap="round" stroke-linejoin="round"/>
<path d="M32.7332 11.6667H27.2665C26.9351 11.6667 26.6665 11.9354 26.6665 12.2667V27.7334C26.6665 28.0648 26.9351 28.3334 27.2665 28.3334H32.7332C33.0645 28.3334 33.3332 28.0648 33.3332 27.7334V12.2667C33.3332 11.9354 33.0645 11.6667 32.7332 11.6667Z" stroke="#333333" stroke-linecap="round" stroke-linejoin="round"/>
<path d="M1.6665 24.4001V15.6001C1.6665 15.2688 1.93513 15.0001 2.2665 15.0001H6.0665C6.39787 15.0001 6.6665 15.2688 6.6665 15.6001V24.4001C6.6665 24.7315 6.39787 25.0001 6.0665 25.0001H2.2665C1.93513 25.0001 1.6665 24.7315 1.6665 24.4001Z" stroke="#333333" stroke-linecap="round" stroke-linejoin="round"/>
<path d="M38.333 24.4001V15.6001C38.333 15.2688 38.0644 15.0001 37.733 15.0001H33.933C33.6016 15.0001 33.333 15.2688 33.333 15.6001V24.4001C33.333 24.7315 33.6016 25.0001 33.933 25.0001H37.733C38.0644 25.0001 38.333 24.7315 38.333 24.4001Z" stroke="#333333" stroke-linecap="round" stroke-linejoin="round"/>
<path d="M13.333 20.0001H26.6663" stroke="#333333" stroke-linecap="round" stroke-linejoin="round"/>
</svg>
