<svg width="18" height="19" viewBox="0 0 18 19" fill="none" xmlns="http://www.w3.org/2000/svg">
<path d="M15.6001 17.2998V6.49976M15.6001 17.2998L13.8001 15.5945M15.6001 17.2998L17.4001 15.5945M15.6001 6.49976L13.8001 8.20502M15.6001 6.49976L17.4001 8.20502" stroke="#333333" stroke-width="0.8" stroke-linecap="round" stroke-linejoin="round"/>
<path d="M0.600146 2.89995L11.4001 2.89995M0.600146 2.89995L2.30541 1.09995M0.600146 2.89995L2.30541 4.69995M11.4001 2.89995L9.69488 1.09995M11.4001 2.89995L9.69488 4.69995" stroke="#333333" stroke-width="0.8" stroke-linecap="round" stroke-linejoin="round"/>
<path d="M0.600098 16.6998V7.09976C0.600098 6.76839 0.868728 6.49976 1.2001 6.49976H10.8001C11.1315 6.49976 11.4001 6.76839 11.4001 7.09976V16.6998C11.4001 17.0311 11.1315 17.2998 10.8001 17.2998H1.2001C0.868727 17.2998 0.600098 17.0311 0.600098 16.6998Z" stroke="#333333" stroke-width="0.8"/>
</svg>
